# xmcd CD database file
#
# Track frame offsets:
#	150
#	22107
#	43241
#	64945
#	88685
#
# Disc length: 1550 seconds
#
# Revision: 1
# Processed by: cddbd v1.5.2PL0 Copyright (c) Steve Scherf et al.
# Submitted via: CDex 1.51
#
DISCID=42060c05
DTITLE=Qntal - V - Silver Swan CD2
DYEAR=1996
DGENRE=New Age
TTITLE0=Von Den Elben (Single Edit)
TTITLE1=Levis (Half Light Mix)
TTITLE2=292 (A Darker Shape Mix)
TTITLE3=Veni (Filthy Floor Mix)
TTITLE4=Rot
EXTD=YEAR: 1996
EXTT0=
EXTT1=
EXTT2=
EXTT3=
EXTT4=
PLAYORDER=
